<?xml version="1.0" encoding="UTF-8" standalone="no"?>
<!-- Created with Inkscape (http://www.inkscape.org/) -->

<svg
   width="67.152405mm"
   height="45.088043mm"
   viewBox="0 0 67.152405 45.088043"
   version="1.1"
   id="svg1"
   xmlns:inkscape="http://www.inkscape.org/namespaces/inkscape"
   xmlns:sodipodi="http://sodipodi.sourceforge.net/DTD/sodipodi-0.dtd"
   xmlns="http://www.w3.org/2000/svg"
   xmlns:svg="http://www.w3.org/2000/svg">
  <sodipodi:namedview
     id="namedview1"
     pagecolor="#ffffff"
     bordercolor="#000000"
     borderopacity="0.25"
     inkscape:showpageshadow="2"
     inkscape:pageopacity="0.0"
     inkscape:pagecheckerboard="0"
     inkscape:deskcolor="#d1d1d1"
     inkscape:document-units="mm" />
  <defs
     id="defs1" />
  <g
     inkscape:label="Laag 1"
     inkscape:groupmode="layer"
     id="layer1"
     transform="translate(-67.230043,-127.87161)">
    <g
       transform="matrix(0.95932017,0,0,0.95932017,-240.71173,-6.4332237)"
       id="g1"
       inkscape:export-filename=".\pilots-logo-notext-white.png"
       inkscape:export-xdpi="96"
       inkscape:export-ydpi="96">
      <path
         d="M 46.0448,5.96332 C 52.0841,5.79318 60.4052,2.94143 63.1034,2.17177 L 63.864,1.58846 c 0,-0.1904 -0.1766,-0.46584 -0.3599,-0.768653 L 63.1519,0 H 4.32039 L 4.27987,0.0488633 C 4.10569,0.258284 3.89858,0.484628 3.61561,0.713499 2.48382,1.62898 -0.241603,2.02594 0.627626,2.17177 1.49686,2.3176 4.24038,1.17529 8.61368,1.34539 12.987,1.51552 20.6289,2.4229 26.8675,3.19256 33.106,3.96222 40.0055,6.13346 46.0448,5.96332 Z M 62.1523,10.9139 C 66.4682,10.84 67.6578,10.2486 70,9.7872 69.6954,6.21036 67.0664,3.2941 64.0512,2.75856 60.0039,4.03043 55.6306,5.97167 51.9092,6.57414 48.1878,7.17656 47.2099,7.55588 38.9523,6.30637 30.6946,5.05685 22.5184,3.07095 14.1793,2.55777 5.84014,2.04454 2.34964,2.8478 0,3.16019 L 0.0814707,4.43207 C 2.49901,4.54362 4.91654,3.23828 14.5052,3.82959 c 9.5887,0.59132 32.9628,6.50431 42.1304,6.96171 2.2919,0.1144 4.078,0.1472 5.5167,0.1226 z m -0.372,5.4581 c 5.7257,0.0986 7.2023,-1.6619 7.9509,-2.5338 0.1359,-1.1241 -0.3667,-1.1302 -0.7741,-1.7135 -0.4074,-0.5833 0.0271,-0.7777 0.2852,-1.3489 l -4.156,0.9479 C 63.701,12.0396 60.0475,12.0883 56.8966,11.833 53.7456,11.5778 53.7388,11.4138 46.1806,10.1925 38.6224,8.97116 17.0071,4.7846 11.5473,4.5051 6.08747,4.2256 5.0824,4.53551 2.99085,5.01552 l 1.87424,4.11967 c 5.59571,0 8.18981,-0.44963 16.78701,0 4.2986,0.22482 11.6463,1.79701 18.9209,3.41101 l 0.0901,0.02 1.0164,-1.0362 5.965,0.9707 0.7433,1.7642 2.6523,0.5705 c 3.2106,0.6646 6.0127,1.1766 8.0159,1.3725 1.0017,0.098 1.9064,0.15 2.7243,0.1641 z m -33.3374,3.591 12.6039,-0.0972 3.1509,-7.097 -1.7384,-0.2917 -1.3039,1.1666 C 37.7148,12.9794 27.954,10.6461 25.2377,10.4841 Z m 2.0645,3.111 C 30.4892,22.2638 30.4711,21.4537 30.453,20.6435 l -2.825,0.0486 -3.2053,-10.2567 -4.7807,-0.3888 4.5634,12.9302 z m 0.7605,8.847 h 9.4529 l 0.6519,-1.6669 v -1.1403 l -0.6519,-8.3386 h -9.4529 l -0.7605,8.3386 v 1.1403 z M 35.3054,47 h 1.0745 L 36.738,32.3585 h -1.7908 z"
         fill="#ffffff"
         fill-rule="evenodd"
         transform="matrix(1,0,0,-1,321,187)"
         id="path1" />
    </g>
  </g>
</svg>
