<?xml version="1.0" encoding="UTF-8" standalone="no"?>
<!-- Created with Inkscape (http://www.inkscape.org/) -->

<svg
   width="54.152081mm"
   height="54.152081mm"
   viewBox="0 0 54.152081 54.152081"
   version="1.1"
   id="svg1"
   xmlns:inkscape="http://www.inkscape.org/namespaces/inkscape"
   xmlns:sodipodi="http://sodipodi.sourceforge.net/DTD/sodipodi-0.dtd"
   xmlns="http://www.w3.org/2000/svg"
   xmlns:svg="http://www.w3.org/2000/svg">
  <sodipodi:namedview
     id="namedview1"
     pagecolor="#ffffff"
     bordercolor="#000000"
     borderopacity="0.25"
     inkscape:showpageshadow="2"
     inkscape:pageopacity="0.0"
     inkscape:pagecheckerboard="0"
     inkscape:deskcolor="#d1d1d1"
     inkscape:document-units="mm" />
  <defs
     id="defs1" />
  <g
     inkscape:label="Laag 1"
     inkscape:groupmode="layer"
     id="layer1"
     transform="translate(-77.492105,-102.52829)">
    <g
       transform="matrix(0.98458333,0,0,0.98458333,-12.104978,-258.81379)"
       id="g2">
      <path
         d="M 36.1781,4.44077 C 40.9233,4.31407 47.4612,2.19042 49.5813,1.61728 L 50.1789,1.1829 c 0,-0.14179 -0.1388,-0.346909 -0.2828,-0.572406 L 49.6194,0 H 3.39459 L 3.36275,0.0363876 C 3.2259,0.192339 3.06317,0.360894 2.84084,0.531329 1.95157,1.21307 -0.189831,1.50868 0.493135,1.61728 1.1761,1.72587 3.33173,0.875218 6.76789,1.00188 10.2041,1.12858 16.2085,1.80429 21.1102,2.37744 26.0118,2.95059 31.4329,4.56747 36.1781,4.44077 Z M 48.8339,8.12735 C 52.2251,8.07232 53.1597,7.63191 55,7.28834 54.7607,4.62473 52.695,2.45305 50.326,2.05425 47.1459,3.00139 43.7098,4.44699 40.7858,4.89563 37.8618,5.34425 37.0935,5.62672 30.6054,4.69623 24.1172,3.76574 17.6931,2.28688 11.1409,1.90472 4.58868,1.52253 1.84615,2.1207 0,2.35333 L 0.0640127,3.30048 C 1.96351,3.38355 3.863,2.41148 11.397,2.85183 c 7.5339,0.44034 25.8993,4.84362 33.1024,5.18425 1.8008,0.08516 3.2041,0.10962 4.3345,0.09127 z m -0.2922,4.06455 c 4.4987,0.0734 5.6589,-1.2376 6.2471,-1.8869 C 54.8956,9.46794 54.5007,9.46339 54.1805,9.02901 53.8604,8.59463 54.2019,8.44986 54.4047,8.0245 L 51.1392,8.73039 C 50.0508,8.96568 47.1802,9.00189 44.7045,8.81182 42.2287,8.62179 42.2234,8.49964 36.2848,7.59012 30.3462,6.68065 13.3627,3.563 9.07288,3.35486 4.78301,3.14672 3.99331,3.37751 2.34995,3.73496 L 3.82257,6.8028 c 4.3966,0 6.43483,-0.33483 13.18973,0 3.3775,0.16742 9.1507,1.33821 14.8665,2.54014 l 0.0708,0.01487 0.7986,-0.77166 4.6868,0.72285 0.584,1.3138 2.0839,0.4248 c 2.5226,0.495 4.7243,0.8762 6.2983,1.0221 0.787,0.073 1.4978,0.1117 2.1405,0.1222 z M 22.348,14.8661 32.251,14.7937 34.7268,9.50865 33.3608,9.29146 32.3364,10.1602 C 29.633,9.66549 21.9638,7.92798 19.8296,7.80731 Z m 1.6221,2.3167 c -0.0143,-0.6034 -0.0285,-1.2066 -0.0427,-1.81 L 21.7077,15.409 19.1893,7.77107 15.433,7.48149 19.0186,17.1104 Z m 0.5975,6.5881 h 7.4273 l 0.5122,-1.2413 v -0.8491 l -0.5122,-6.2096 h -7.4273 l -0.5975,6.2096 v 0.8491 z M 27.74,35 h 0.8442 l 0.2814,-10.9032 h -1.407 z"
         fill="#2f728e"
         fill-rule="evenodd"
         transform="matrix(1,0,0,-1,91,402)"
         id="path1" />
      <path
         d="m 122.593,408.875 c -0.95,0 -1.424,0.549 -1.424,1.646 v 7.958 c 0,1.097 0.474,1.646 1.424,1.646 0.949,0 1.424,-0.549 1.424,-1.646 v -7.958 c 0,-1.097 -0.475,-1.646 -1.424,-1.646 z m -27.3419,0 c -0.3117,0 -0.5703,0.038 -0.7758,0.115 -0.2054,0.076 -0.3932,0.114 -0.5633,0.114 v 4.938 c 0.2409,0.069 0.4818,0.125 0.7227,0.166 0.2409,0.042 0.4464,0.063 0.6164,0.063 0.7369,0 1.2647,-0.174 1.5836,-0.521 0.3188,-0.347 0.4782,-0.931 0.4782,-1.75 v -0.854 c 0,-0.792 -0.1629,-1.368 -0.4888,-1.729 -0.326,-0.361 -0.8503,-0.542 -1.573,-0.542 z m 33.2429,-1.667 h 7.737 v 1.875 h -2.296 v 12.709 h -3.082 v -12.709 h -2.359 z m -19.699,0 h 3.082 v 12.709 h 4.762 v 1.875 h -7.844 z m -6.426,0 h 3.082 v 14.584 h -3.082 z M 142.068,407 c 0.68,0 1.268,0.073 1.764,0.219 0.496,0.146 0.871,0.219 1.126,0.219 v 2.083 c -0.184,0 -0.347,-0.021 -0.488,-0.063 -0.142,-0.041 -0.287,-0.09 -0.436,-0.146 -0.149,-0.055 -0.315,-0.104 -0.5,-0.145 -0.184,-0.042 -0.411,-0.063 -0.68,-0.063 -0.694,0 -1.254,0.163 -1.679,0.49 -0.425,0.326 -0.638,0.913 -0.638,1.76 0,0.347 0.064,0.646 0.192,0.896 0.127,0.25 0.301,0.469 0.52,0.656 0.22,0.188 0.472,0.354 0.755,0.5 0.283,0.146 0.581,0.288 0.893,0.427 0.368,0.181 0.737,0.372 1.105,0.573 0.368,0.202 0.701,0.455 0.999,0.761 0.298,0.305 0.538,0.673 0.723,1.104 0.184,0.43 0.276,0.958 0.276,1.583 0,0.667 -0.078,1.257 -0.234,1.771 -0.156,0.514 -0.421,0.948 -0.797,1.302 -0.375,0.354 -0.871,0.622 -1.488,0.802 -0.616,0.181 -1.385,0.271 -2.306,0.271 -0.383,0 -0.723,-0.024 -1.02,-0.073 -0.298,-0.049 -0.564,-0.097 -0.797,-0.146 -0.234,-0.048 -0.454,-0.097 -0.659,-0.146 -0.206,-0.048 -0.408,-0.073 -0.606,-0.073 v -2.083 c 0.127,0 0.269,0.021 0.425,0.063 0.156,0.041 0.333,0.09 0.531,0.146 0.199,0.055 0.426,0.104 0.681,0.145 0.255,0.042 0.545,0.063 0.871,0.063 0.397,0 0.765,-0.031 1.105,-0.094 0.34,-0.062 0.627,-0.17 0.861,-0.323 0.234,-0.153 0.418,-0.361 0.553,-0.625 0.135,-0.264 0.202,-0.597 0.202,-1 0,-0.292 -0.075,-0.548 -0.223,-0.771 -0.149,-0.222 -0.344,-0.42 -0.585,-0.593 -0.241,-0.174 -0.517,-0.341 -0.829,-0.5 -0.312,-0.16 -0.63,-0.323 -0.956,-0.49 -0.411,-0.208 -0.805,-0.438 -1.18,-0.688 -0.376,-0.25 -0.705,-0.545 -0.988,-0.885 -0.284,-0.34 -0.514,-0.736 -0.691,-1.187 -0.177,-0.452 -0.266,-0.99 -0.266,-1.615 0,-0.583 0.074,-1.129 0.223,-1.635 0.149,-0.507 0.393,-0.945 0.734,-1.313 0.34,-0.368 0.797,-0.656 1.371,-0.865 0.573,-0.208 1.286,-0.312 2.136,-0.312 z m -19.475,0 c 1.587,0 2.742,0.316 3.464,0.948 0.723,0.632 1.084,1.628 1.084,2.989 v 7.125 c 0,1.362 -0.361,2.358 -1.084,2.99 -0.722,0.632 -1.877,0.948 -3.464,0.948 -1.545,0 -2.689,-0.316 -3.433,-0.948 -0.744,-0.632 -1.116,-1.628 -1.116,-2.99 v -7.125 c 0,-1.361 0.372,-2.357 1.116,-2.989 0.744,-0.632 1.888,-0.948 3.433,-0.948 z m -27.1931,0 c 1.6721,0 2.8943,0.34 3.6666,1.021 0.7723,0.68 1.1585,1.75 1.1585,3.208 v 1.188 c 0,1.333 -0.3579,2.288 -1.0735,2.864 -0.7156,0.577 -1.8953,0.865 -3.539,0.865 -0.2409,0 -0.5031,-0.018 -0.7865,-0.052 -0.2834,-0.035 -0.5881,-0.094 -0.914,-0.177 v 5.875 H 91 v -14.313 c 0.4818,0 0.9175,-0.024 1.3072,-0.073 0.3897,-0.048 0.7546,-0.104 1.0947,-0.166 0.3401,-0.063 0.6695,-0.118 0.9884,-0.167 0.3188,-0.049 0.6554,-0.073 1.0096,-0.073 z"
         fill="#2f728e"
         fill-rule="evenodd"
         id="path2" />
    </g>
  </g>
</svg>
