<?xml version="1.0" encoding="UTF-8" standalone="no"?>
<!-- Created with Inkscape (http://www.inkscape.org/) -->

<svg
   width="58.120831mm"
   height="38.193699mm"
   viewBox="0 0 58.120831 38.193699"
   version="1.1"
   id="svg1"
   xmlns:inkscape="http://www.inkscape.org/namespaces/inkscape"
   xmlns:sodipodi="http://sodipodi.sourceforge.net/DTD/sodipodi-0.dtd"
   xmlns="http://www.w3.org/2000/svg"
   xmlns:svg="http://www.w3.org/2000/svg">
  <sodipodi:namedview
     id="namedview1"
     pagecolor="#ffffff"
     bordercolor="#000000"
     borderopacity="0.25"
     inkscape:showpageshadow="2"
     inkscape:pageopacity="0.0"
     inkscape:pagecheckerboard="0"
     inkscape:deskcolor="#d1d1d1"
     inkscape:document-units="mm" />
  <defs
     id="defs1" />
  <g
     inkscape:label="Laag 1"
     inkscape:groupmode="layer"
     id="layer1"
     transform="translate(-74.127092,-125.10106)">
    <g
       transform="matrix(0.83029762,0,0,0.83029762,-192.39845,-182.10905)"
       id="g1">
      <path
         d="M 46.0448,5.83644 C 52.0841,5.66992 60.4052,2.87884 63.1034,2.12556 l 0.7606,-0.5709 c 0,-0.18634 -0.1766,-0.45593 -0.3599,-0.752296 L 63.1519,0 H 4.32039 L 4.27987,0.0478236 C 4.10569,0.252789 3.89858,0.474317 3.61561,0.698318 2.48382,1.59432 -0.241603,1.98284 0.627626,2.12556 1.49686,2.26829 4.24038,1.15029 8.61368,1.31676 12.987,1.48328 20.6289,2.37135 26.8675,3.12463 33.106,3.87791 40.0055,6.00296 46.0448,5.83644 Z M 62.1523,10.6817 C 66.4682,10.6093 67.6578,10.0305 70,9.57896 69.6954,6.07822 67.0664,3.22401 64.0512,2.69987 60.0039,3.94468 55.6306,5.84461 51.9092,6.43426 48.1878,7.02387 47.2099,7.39512 38.9523,6.17219 30.6946,4.94926 22.5184,3.00561 14.1793,2.50335 5.84014,2.00103 2.34964,2.78721 0,3.09295 L 0.0814707,4.33777 C 2.49901,4.44695 4.91654,3.16938 14.5052,3.74811 24.0939,4.32685 47.468,10.114 56.6356,10.5617 c 2.2919,0.1119 4.078,0.1441 5.5167,0.12 z m -0.372,5.342 c 5.7257,0.0965 7.2023,-1.6266 7.9509,-2.48 0.1359,-1.1001 -0.3667,-1.1061 -0.7741,-1.677 -0.4074,-0.5709 0.0271,-0.7612 0.2852,-1.3202 l -4.156,0.9277 C 63.701,11.7835 60.0475,11.8311 56.8966,11.5813 53.7456,11.3315 53.7388,11.1709 46.1806,9.97559 38.6224,8.78028 17.0071,4.6828 11.5473,4.40925 6.08747,4.1357 5.0824,4.43901 2.99085,4.90881 l 1.87424,4.03202 c 5.59571,0 8.18981,-0.44007 16.78701,0 4.2986,0.22003 11.6463,1.75877 18.9209,3.33847 l 0.0901,0.0195 1.0164,-1.0141 5.965,0.95 0.7433,1.7267 2.6523,0.5583 c 3.2106,0.6505 6.0127,1.1516 8.0159,1.3434 1.0017,0.0959 1.9064,0.1468 2.7243,0.1606 z m -33.3374,3.5146 12.6039,-0.0952 3.1509,-6.946 -1.7384,-0.2855 -1.3039,1.1418 C 37.7148,12.7032 27.954,10.4196 25.2377,10.261 Z m 2.0645,3.0448 C 30.4892,21.7901 30.4711,20.9972 30.453,20.2043 L 27.628,20.2518 24.4227,10.2134 19.642,9.83282 24.2054,22.4879 Z m 0.7605,8.6587 h 9.4529 l 0.6519,-1.6314 v -1.116 l -0.6519,-8.1612 h -9.4529 l -0.7605,8.1612 v 1.116 z M 35.3054,46 h 1.0745 L 36.738,31.67 h -1.7908 z"
         fill="#2f728e"
         fill-rule="evenodd"
         transform="matrix(1,0,0,-1,321,416)"
         id="path1" />
    </g>
  </g>
</svg>
