<?xml version="1.0" encoding="UTF-8" standalone="no"?>
<!-- Created with Inkscape (http://www.inkscape.org/) -->

<svg
   width="95.800545mm"
   height="23.681032mm"
   viewBox="0 0 95.800545 23.681032"
   version="1.1"
   id="svg1"
   xmlns:inkscape="http://www.inkscape.org/namespaces/inkscape"
   xmlns:sodipodi="http://sodipodi.sourceforge.net/DTD/sodipodi-0.dtd"
   xmlns="http://www.w3.org/2000/svg"
   xmlns:svg="http://www.w3.org/2000/svg">
  <sodipodi:namedview
     id="namedview1"
     pagecolor="#ffffff"
     bordercolor="#000000"
     borderopacity="0.25"
     inkscape:showpageshadow="2"
     inkscape:pageopacity="0.0"
     inkscape:pagecheckerboard="0"
     inkscape:deskcolor="#d1d1d1"
     inkscape:document-units="mm" />
  <defs
     id="defs1" />
  <g
     inkscape:label="Laag 1"
     inkscape:groupmode="layer"
     id="layer1"
     transform="translate(-59.07356,-128.50245)">
    <g
       transform="matrix(1.0764106,0,0,1.0764106,-149.7501,-40.494007)"
       id="g2"
       inkscape:export-filename=".\pilots-logo-hor-white.png"
       inkscape:export-xdpi="96"
       inkscape:export-ydpi="96">
      <path
         d="M 21.7069,2.79134 C 24.554,2.7117 28.4767,1.37684 29.7488,1.01657 l 0.3585,-0.273035 c 0,-0.089123 -0.0832,-0.218055 -0.1697,-0.359796 L 29.7716,0 H 2.03676 L 2.01765,0.0228722 C 1.93554,0.120899 1.8379,0.226847 1.7045,0.333978 1.17094,0.762503 -0.113898,0.948314 0.295881,1.01657 0.70566,1.08483 1.99904,0.550137 4.06074,0.629755 c 2.0617,0.07964 5.66434,0.504375 8.60536,0.864635 2.941,0.36026 6.1936,1.37659 9.0408,1.29695 z m 7.5935,2.31728 C 31.335,5.07403 31.8958,4.7972 33,4.58124 32.8564,2.90698 31.617,1.54192 30.1956,1.29124 28.2875,1.88659 26.2259,2.79525 24.4715,3.07726 22.7171,3.35924 22.2561,3.5368 18.3632,2.95192 14.4703,2.36704 10.6158,1.43747 6.68452,1.19725 2.75321,0.957016 1.10769,1.33301 0,1.47924 L 0.0384076,2.07458 C 1.1781,2.1268 2.3178,1.51579 6.83818,1.79258 11.3586,2.06936 22.3778,4.83714 26.6997,5.05125 c 1.0804,0.05353 1.9224,0.0689 2.6007,0.05737 z M 29.125,7.6635 c 2.6993,0.04614 3.3953,-0.77793 3.7483,-1.18605 0.064,-0.52618 -0.1729,-0.52903 -0.365,-0.80207 -0.192,-0.27304 0.0128,-0.36404 0.1345,-0.63141 l -1.9593,0.4437 C 30.0305,5.63557 28.3081,5.65833 26.8227,5.53886 25.3372,5.41941 25.334,5.34263 21.7709,4.77094 18.2077,4.19926 8.01763,2.2396 5.44373,2.10877 2.86981,1.97794 2.39599,2.12301 1.40997,2.34769 l 0.88357,1.92836 c 2.63796,0 3.8609,-0.21047 7.91386,0 2.0265,0.10523 5.4904,0.84116 8.9199,1.59665 l 0.0424,0.00935 0.4792,-0.48504 2.8121,0.45436 0.3504,0.82581 1.2504,0.26704 c 1.5135,0.3111 2.8345,0.55074 3.7789,0.64247 0.4722,0.04586 0.8987,0.0702 1.2843,0.07681 z M 13.4088,9.34439 19.3506,9.29889 20.8361,5.97687 20.0165,5.84035 19.4018,6.38643 C 17.7798,6.07545 13.1783,4.9833 11.8978,4.90745 Z M 14.382,10.8006 C 14.3735,10.4214 14.3649,10.0422 14.3564,9.66293 L 13.0246,9.68566 11.5136,4.88467 9.25979,4.70265 11.4111,10.7551 Z m 0.3586,4.1411 h 4.4563 l 0.3074,-0.7802 V 13.6277 L 19.1969,9.72456 H 14.7406 L 14.382,13.6277 v 0.5338 z M 16.644,22 h 0.5065 l 0.1689,-6.8535 h -0.8443 z"
         fill="#ffffff"
         fill-rule="evenodd"
         transform="matrix(1,0,0,-1,194,179)"
         id="path1" />
      <path
         d="m 260.869,165.875 c -0.897,0 -1.346,0.549 -1.346,1.646 v 7.958 c 0,1.097 0.449,1.646 1.346,1.646 0.898,0 1.347,-0.549 1.347,-1.646 v -7.958 c 0,-1.097 -0.449,-1.646 -1.347,-1.646 z m -25.85,0 c -0.295,0 -0.539,0.038 -0.733,0.115 -0.195,0.076 -0.372,0.114 -0.533,0.114 v 4.938 c 0.228,0.069 0.456,0.125 0.683,0.166 0.228,0.042 0.422,0.063 0.583,0.063 0.697,0 1.196,-0.174 1.497,-0.521 0.302,-0.347 0.453,-0.931 0.453,-1.75 v -0.854 c 0,-0.792 -0.155,-1.368 -0.463,-1.729 -0.308,-0.361 -0.803,-0.542 -1.487,-0.542 z m 31.43,-1.667 h 7.315 v 1.875 h -2.171 v 12.709 h -2.914 v -12.709 h -2.23 z m -18.624,0 h 2.914 v 12.709 h 4.501 v 1.875 h -7.415 z m -6.076,0 h 2.914 v 14.584 h -2.914 z M 279.282,164 c 0.643,0 1.199,0.073 1.668,0.219 0.469,0.146 0.824,0.219 1.065,0.219 v 2.083 c -0.174,0 -0.328,-0.021 -0.462,-0.063 -0.134,-0.041 -0.271,-0.09 -0.412,-0.145 -0.141,-0.056 -0.298,-0.105 -0.472,-0.146 -0.174,-0.042 -0.389,-0.063 -0.643,-0.063 -0.657,0 -1.186,0.163 -1.588,0.49 -0.402,0.326 -0.603,0.913 -0.603,1.76 0,0.347 0.061,0.646 0.181,0.896 0.121,0.25 0.285,0.469 0.493,0.656 0.207,0.188 0.445,0.354 0.713,0.5 0.268,0.146 0.549,0.288 0.844,0.427 0.348,0.181 0.697,0.372 1.045,0.573 0.348,0.202 0.663,0.455 0.944,0.761 0.282,0.305 0.51,0.673 0.684,1.104 0.174,0.43 0.261,0.958 0.261,1.583 0,0.667 -0.074,1.257 -0.221,1.771 -0.147,0.514 -0.399,0.948 -0.754,1.302 -0.355,0.354 -0.824,0.622 -1.406,0.802 -0.583,0.181 -1.31,0.271 -2.181,0.271 -0.362,0 -0.683,-0.024 -0.964,-0.073 -0.282,-0.049 -0.533,-0.097 -0.754,-0.146 -0.221,-0.048 -0.429,-0.097 -0.623,-0.146 -0.194,-0.048 -0.385,-0.073 -0.573,-0.073 v -2.083 c 0.121,0 0.255,0.021 0.402,0.063 0.148,0.041 0.315,0.09 0.503,0.145 0.187,0.056 0.402,0.105 0.643,0.146 0.241,0.042 0.515,0.063 0.824,0.063 0.375,0 0.723,-0.031 1.045,-0.094 0.321,-0.062 0.592,-0.17 0.813,-0.323 0.222,-0.153 0.396,-0.361 0.523,-0.625 0.127,-0.264 0.191,-0.597 0.191,-1 0,-0.292 -0.07,-0.548 -0.211,-0.771 -0.141,-0.222 -0.325,-0.42 -0.553,-0.593 -0.228,-0.174 -0.489,-0.341 -0.784,-0.5 -0.294,-0.16 -0.596,-0.323 -0.904,-0.49 -0.388,-0.208 -0.76,-0.438 -1.115,-0.688 -0.355,-0.249 -0.667,-0.545 -0.935,-0.885 -0.268,-0.34 -0.485,-0.736 -0.653,-1.187 -0.167,-0.452 -0.251,-0.99 -0.251,-1.615 0,-0.583 0.07,-1.128 0.211,-1.635 0.141,-0.507 0.372,-0.945 0.693,-1.313 0.322,-0.368 0.754,-0.656 1.297,-0.865 0.542,-0.208 1.215,-0.312 2.019,-0.312 z m -18.413,0 c 1.501,0 2.593,0.316 3.276,0.948 0.683,0.632 1.025,1.628 1.025,2.989 v 7.125 c 0,1.362 -0.342,2.358 -1.025,2.99 -0.683,0.632 -1.775,0.948 -3.276,0.948 -1.46,0 -2.542,-0.316 -3.245,-0.948 -0.703,-0.632 -1.055,-1.628 -1.055,-2.99 v -7.125 c 0,-1.361 0.352,-2.357 1.055,-2.989 0.703,-0.632 1.785,-0.948 3.245,-0.948 z m -25.709,0 c 1.581,0 2.736,0.34 3.467,1.021 0.73,0.68 1.095,1.75 1.095,3.208 v 1.188 c 0,1.333 -0.339,2.288 -1.015,2.864 -0.677,0.577 -1.792,0.865 -3.346,0.865 -0.228,0 -0.476,-0.018 -0.744,-0.052 -0.268,-0.035 -0.556,-0.094 -0.864,-0.177 v 5.875 H 231 v -14.313 c 0.456,0 0.867,-0.024 1.236,-0.073 0.368,-0.048 0.713,-0.104 1.035,-0.166 0.321,-0.063 0.633,-0.118 0.934,-0.167 0.302,-0.049 0.62,-0.073 0.955,-0.073 z"
         fill="#ffffff"
         fill-rule="evenodd"
         id="path2" />
    </g>
  </g>
</svg>
