<?xml version="1.0" encoding="UTF-8" standalone="no"?>
<!-- Created with Inkscape (http://www.inkscape.org/) -->

<svg
   width="102.05317mm"
   height="25.226633mm"
   viewBox="0 0 102.05317 25.226633"
   version="1.1"
   id="svg1"
   xmlns:inkscape="http://www.inkscape.org/namespaces/inkscape"
   xmlns:sodipodi="http://sodipodi.sourceforge.net/DTD/sodipodi-0.dtd"
   xmlns="http://www.w3.org/2000/svg"
   xmlns:svg="http://www.w3.org/2000/svg">
  <sodipodi:namedview
     id="namedview1"
     pagecolor="#ffffff"
     bordercolor="#000000"
     borderopacity="0.25"
     inkscape:showpageshadow="2"
     inkscape:pageopacity="0.0"
     inkscape:pagecheckerboard="0"
     inkscape:deskcolor="#d1d1d1"
     inkscape:document-units="mm" />
  <defs
     id="defs1" />
  <g
     inkscape:label="Laag 1"
     inkscape:groupmode="layer"
     id="layer1"
     transform="translate(-60.195157,-124.02996)">
    <g
       transform="matrix(1.1466649,0,0,1.1466649,-162.25783,-318.58268)"
       id="g2"
       inkscape:export-filename=".\pilot-logo-hor-blue.png"
       inkscape:export-xdpi="96"
       inkscape:export-ydpi="96">
      <path
         d="M 21.7069,2.79134 C 24.554,2.7117 28.4767,1.37684 29.7488,1.01657 l 0.3585,-0.273035 c 0,-0.089123 -0.0832,-0.218055 -0.1697,-0.359796 L 29.7716,0 H 2.03676 L 2.01765,0.0228722 C 1.93554,0.120899 1.8379,0.226847 1.7045,0.333978 1.17094,0.762503 -0.113898,0.948314 0.295881,1.01657 0.70566,1.08483 1.99904,0.550137 4.06074,0.629755 c 2.0617,0.07964 5.66434,0.504375 8.60536,0.864635 2.941,0.36026 6.1936,1.37659 9.0408,1.29695 z m 7.5935,2.31728 C 31.335,5.07403 31.8958,4.7972 33,4.58124 32.8564,2.90698 31.617,1.54192 30.1956,1.29124 28.2875,1.88659 26.2259,2.79525 24.4715,3.07726 22.7171,3.35924 22.2561,3.5368 18.3632,2.95192 14.4703,2.36704 10.6158,1.43747 6.68452,1.19725 2.75321,0.957016 1.10769,1.33301 0,1.47924 L 0.0384076,2.07458 C 1.1781,2.1268 2.3178,1.51579 6.83818,1.79258 11.3586,2.06936 22.3778,4.83714 26.6997,5.05125 c 1.0804,0.05353 1.9224,0.0689 2.6007,0.05737 z M 29.125,7.6635 c 2.6993,0.04614 3.3953,-0.77793 3.7483,-1.18605 0.064,-0.52618 -0.1729,-0.52903 -0.365,-0.80207 -0.192,-0.27304 0.0128,-0.36404 0.1345,-0.63141 l -1.9593,0.4437 C 30.0305,5.63557 28.3081,5.65833 26.8227,5.53886 25.3372,5.41941 25.334,5.34263 21.7709,4.77094 18.2077,4.19926 8.01763,2.2396 5.44373,2.10877 2.86981,1.97794 2.39599,2.12301 1.40997,2.34769 l 0.88357,1.92836 c 2.63796,0 3.8609,-0.21047 7.91386,0 2.0265,0.10523 5.4904,0.84116 8.9199,1.59665 l 0.0424,0.00935 0.4792,-0.48504 2.8121,0.45436 0.3504,0.82581 1.2504,0.26704 c 1.5135,0.3111 2.8345,0.55074 3.7789,0.64247 0.4722,0.04586 0.8987,0.0702 1.2843,0.07681 z M 13.4088,9.34439 19.3506,9.29889 20.8361,5.97687 20.0165,5.84035 19.4018,6.38643 C 17.7798,6.07545 13.1783,4.9833 11.8978,4.90745 Z M 14.382,10.8006 C 14.3735,10.4214 14.3649,10.0422 14.3564,9.66293 L 13.0246,9.68566 11.5136,4.88467 9.25979,4.70265 11.4111,10.7551 Z m 0.3586,4.1411 h 4.4563 l 0.3074,-0.7802 V 13.6277 L 19.1969,9.72456 H 14.7406 L 14.382,13.6277 v 0.5338 z M 16.644,22 h 0.5065 l 0.1689,-6.8535 h -0.8443 z"
         fill="#2f728e"
         fill-rule="evenodd"
         transform="matrix(1,0,0,-1,194,408)"
         id="path1" />
      <path
         d="m 260.869,395.75 c -0.897,0 -1.346,0.512 -1.346,1.536 v 7.428 c 0,1.024 0.449,1.536 1.346,1.536 0.898,0 1.347,-0.512 1.347,-1.536 v -7.428 c 0,-1.024 -0.449,-1.536 -1.347,-1.536 z m -25.85,0 c -0.295,0 -0.539,0.036 -0.733,0.107 -0.195,0.071 -0.372,0.107 -0.533,0.107 v 4.608 c 0.228,0.065 0.456,0.117 0.683,0.156 0.228,0.039 0.422,0.058 0.583,0.058 0.697,0 1.196,-0.162 1.497,-0.486 0.302,-0.324 0.453,-0.869 0.453,-1.633 v -0.798 c 0,-0.738 -0.155,-1.276 -0.463,-1.613 -0.308,-0.338 -0.803,-0.506 -1.487,-0.506 z m 31.43,-1.556 h 7.315 v 1.75 h -2.171 v 11.862 h -2.914 v -11.862 h -2.23 z m -18.624,0 h 2.914 v 11.862 h 4.501 v 1.75 h -7.415 z m -6.076,0 h 2.914 v 13.612 h -2.914 z M 279.282,394 c 0.643,0 1.199,0.068 1.668,0.204 0.469,0.136 0.824,0.204 1.065,0.204 v 1.945 c -0.174,0 -0.328,-0.02 -0.462,-0.059 -0.134,-0.038 -0.271,-0.084 -0.412,-0.136 -0.141,-0.052 -0.298,-0.097 -0.472,-0.136 -0.174,-0.039 -0.389,-0.058 -0.643,-0.058 -0.657,0 -1.186,0.152 -1.588,0.457 -0.402,0.304 -0.603,0.852 -0.603,1.643 0,0.324 0.061,0.603 0.181,0.836 0.121,0.233 0.285,0.437 0.493,0.612 0.207,0.176 0.445,0.331 0.713,0.467 0.268,0.136 0.549,0.269 0.844,0.399 0.348,0.168 0.697,0.347 1.045,0.535 0.348,0.187 0.663,0.424 0.944,0.709 0.282,0.285 0.51,0.629 0.684,1.031 0.174,0.402 0.261,0.894 0.261,1.478 0,0.622 -0.074,1.173 -0.221,1.652 -0.147,0.48 -0.399,0.885 -0.754,1.216 -0.355,0.33 -0.824,0.58 -1.406,0.748 -0.583,0.169 -1.31,0.253 -2.181,0.253 -0.362,0 -0.683,-0.023 -0.964,-0.068 -0.282,-0.045 -0.533,-0.091 -0.754,-0.136 -0.221,-0.046 -0.429,-0.091 -0.623,-0.136 -0.194,-0.046 -0.385,-0.068 -0.573,-0.068 v -1.945 c 0.121,0 0.255,0.02 0.402,0.059 0.148,0.038 0.315,0.084 0.503,0.136 0.187,0.051 0.402,0.097 0.643,0.136 0.241,0.039 0.515,0.058 0.824,0.058 0.375,0 0.723,-0.029 1.045,-0.087 0.321,-0.059 0.592,-0.159 0.813,-0.302 0.222,-0.142 0.396,-0.337 0.523,-0.583 0.127,-0.246 0.191,-0.558 0.191,-0.933 0,-0.273 -0.07,-0.513 -0.211,-0.72 -0.141,-0.207 -0.325,-0.392 -0.553,-0.554 -0.228,-0.162 -0.489,-0.318 -0.784,-0.467 -0.294,-0.149 -0.596,-0.301 -0.904,-0.457 -0.388,-0.194 -0.76,-0.408 -1.115,-0.641 -0.355,-0.234 -0.667,-0.509 -0.935,-0.827 -0.268,-0.317 -0.485,-0.687 -0.653,-1.108 -0.167,-0.421 -0.251,-0.924 -0.251,-1.507 0,-0.544 0.07,-1.053 0.211,-1.526 0.141,-0.474 0.372,-0.882 0.693,-1.225 0.322,-0.344 0.754,-0.613 1.297,-0.807 0.542,-0.195 1.215,-0.292 2.019,-0.292 z m -18.413,0 c 1.501,0 2.593,0.295 3.276,0.885 0.683,0.59 1.025,1.52 1.025,2.79 v 6.65 c 0,1.27 -0.342,2.2 -1.025,2.79 -0.683,0.59 -1.775,0.885 -3.276,0.885 -1.46,0 -2.542,-0.295 -3.245,-0.885 -0.703,-0.59 -1.055,-1.52 -1.055,-2.79 v -6.65 c 0,-1.27 0.352,-2.2 1.055,-2.79 0.703,-0.59 1.785,-0.885 3.245,-0.885 z m -25.709,0 c 1.581,0 2.736,0.318 3.467,0.953 0.73,0.635 1.095,1.633 1.095,2.994 v 1.109 c 0,1.244 -0.339,2.135 -1.015,2.673 -0.677,0.538 -1.792,0.807 -3.346,0.807 -0.228,0 -0.476,-0.016 -0.744,-0.049 -0.268,-0.032 -0.556,-0.087 -0.864,-0.165 v 5.484 H 231 v -13.359 c 0.456,0 0.867,-0.022 1.236,-0.068 0.368,-0.045 0.713,-0.097 1.035,-0.155 0.321,-0.059 0.633,-0.111 0.934,-0.156 0.302,-0.045 0.62,-0.068 0.955,-0.068 z"
         fill="#2f728e"
         fill-rule="evenodd"
         id="path2" />
    </g>
  </g>
</svg>
