<svg xmlns="http://www.w3.org/2000/svg" viewBox="0 0 640 512"><!--!Font Awesome Pro 7.2.0 by @fontawesome - https://fontawesome.com License - https://fontawesome.com/license (Commercial License) Copyright 2026 Fonticons, Inc.--><path fill="#276c6f" d="M24 32C10.7 32 0 42.7 0 56S10.7 80 24 80l8 0 0 352-8 0c-13.3 0-24 10.7-24 24s10.7 24 24 24l32 0 304.3 0c-11.8-14.3-21.4-30.5-28.3-48l-252 0 0-352 480 0 0 124c17.5 6.9 33.7 16.5 48 28.3l0 0 0-152.3 8 0c13.3 0 24-10.7 24-24s-10.7-24-24-24l-32 0-528 0-32 0zm128 96c-13.3 0-24 10.7-24 24l0 208c0 13.3 10.7 24 24 24s24-10.7 24-24l0-208c0-13.3-10.7-24-24-24zm112 0c-13.3 0-24 10.7-24 24l0 208c0 13.3 10.7 24 24 24s24-10.7 24-24l0-208c0-13.3-10.7-24-24-24zm112 0c-13.3 0-24 10.7-24 24l0 114.8 0 0c12.9-18.3 29.2-34.1 48-46.3l0-68.5c0-13.3-10.7-24-24-24zm112 0c-13.3 0-24 10.7-24 24l0 42.9c10.4-1.9 21.1-2.9 32-2.9 5.4 0 10.7 .2 16 .7l0-40.7c0-13.3-10.7-24-24-24zm8 96c-79.5 0-144 64.5-144 144s64.5 144 144 144 144-64.5 144-144-64.5-144-144-144zm44.7 100.7c6.2-6.2 16.4-6.2 22.6 0s6.2 16.4 0 22.6l-72 72c-6.2 6.2-16.4 6.2-22.6 0l-40-40c-6.2-6.2-6.2-16.4 0-22.6s16.4-6.2 22.6 0l28.7 28.7 60.7-60.7z"/></svg>